<svg width="116" height="46" viewBox="0 0 116 46" fill="none" xmlns="http://www.w3.org/2000/svg">
<circle cx="34.9272" cy="29.4377" r="11.1386" fill="#0A12CA"/>
<path d="M31.3469 8.67218L30.9882 8.02203C30.3877 6.93361 29.5316 6.00746 28.4936 5.32337V5.32337C27.2409 4.49771 25.7735 4.05762 24.2731 4.05762H23.561C22.6566 4.05762 21.7567 4.18721 20.889 4.44242L20.0848 4.67895C18.8165 5.05199 17.6868 5.79195 16.8382 6.80565V6.80565C15.8287 8.01144 15.2755 9.53391 15.2755 11.1065V13.0481V19.5721V23.6297M15.2755 23.6297V32.9384V42.9631V23.6297ZM15.2755 23.6297H22.1973M15.2755 23.6297H3.97778" stroke="black" stroke-width="3.97806"/>
<path fill-rule="evenodd" clip-rule="evenodd" d="M93.8071 7.31964C88.6785 7.31964 84.4804 11.3995 84.334 16.526L82.3458 16.4692L84.3339 16.5277L84.0952 24.6429L84.0947 24.6626L84.0937 24.6824L83.6359 33.9683C83.5521 35.6697 82.9703 37.309 81.963 38.6826L81.8935 38.7773C81.4586 39.3704 80.9426 39.8996 80.3606 40.3493L80.2125 40.4637C77.9658 42.1998 74.9356 42.5301 72.3677 41.3188C71.3544 40.8409 70.4601 40.1436 69.7494 39.2775L69.4715 38.9387C68.258 37.4599 67.5192 35.6492 67.3515 33.7436L66.6798 26.1113L66.6779 26.0898L66.6765 26.0682L66.04 16.4413L70.0094 16.1788L70.6445 25.7842L71.3142 33.3949C71.4117 34.5028 71.8413 35.5556 72.5468 36.4154L72.8248 36.7542C73.1613 37.1643 73.5849 37.4946 74.0648 37.7209C75.281 38.2946 76.7161 38.1382 77.7801 37.316L77.9282 37.2015C78.2158 36.9793 78.4707 36.7179 78.6856 36.4248L78.7551 36.3301C79.3016 35.5849 79.6172 34.6955 79.6627 33.7725L80.1195 24.5062L80.3575 16.4124L80.3575 16.4118C80.5658 9.13365 86.5259 3.34158 93.8071 3.34158H103.191V7.31964H93.8071ZM52.2861 18.4574C54.2484 16.6365 57.0443 16.0237 59.5884 16.8569C61.2215 17.3918 62.6161 18.4808 63.5309 19.9356L64.5643 21.5789L61.1967 23.6966L60.1634 22.0532C59.7426 21.3842 59.1013 20.8834 58.3502 20.6374C57.1802 20.2542 55.8944 20.536 54.992 21.3734L54.7388 21.6084C54.2018 22.1067 53.813 22.7438 53.6154 23.4493L52.3407 27.9996L51.7099 31.3191C51.6177 31.8044 51.5787 32.2983 51.5936 32.792L51.6193 33.6465C51.672 35.3988 52.6024 37.0071 54.0952 37.9263L54.3547 38.0861C54.6472 38.2662 54.966 38.3992 55.2997 38.4804C56.6199 38.8014 58.0013 38.2755 58.7737 37.1579L60.2508 35.021L63.5232 37.2829L62.0462 39.4198C60.337 41.8925 57.2806 43.056 54.3598 42.3458C53.6215 42.1662 52.9159 41.8719 52.2689 41.4735L52.0093 41.3137C49.3768 39.6926 47.7359 36.8563 47.643 33.7661L47.6173 32.9116C47.5938 32.1289 47.6556 31.3459 47.8018 30.5766L48.4484 27.1736L48.4642 27.0902L48.4872 27.0084L49.7847 22.3762C50.1802 20.9645 50.9583 19.6896 52.0329 18.6923L52.2861 18.4574ZM95.6462 11.059C93.1746 11.059 90.8738 12.32 89.5441 14.4034C88.8016 15.5667 88.4071 16.918 88.4071 18.2981V18.8557C88.4071 21.3937 89.4613 23.8176 91.3179 25.5481L93.5164 27.5973C94.115 28.1553 94.7555 28.6668 95.4321 29.1271L99.3567 31.7975C99.9361 32.1917 100.379 32.7559 100.624 33.4123C101.08 34.629 100.799 35.9988 99.9022 36.9387L99.6937 37.1572C99.2745 37.5966 98.7579 37.9311 98.1854 38.1339L97.8746 38.2439C96.8416 38.6098 95.7199 38.6434 94.6668 38.34L93.999 38.1475C93.2605 37.9348 92.6138 37.4823 92.1608 36.8615C91.7284 36.269 91.4954 35.5543 91.4954 34.8207V34.4746C91.4954 33.8215 91.6368 33.1763 91.9098 32.5831L92.2029 31.9462L88.5893 30.2829L88.2962 30.9198C87.783 32.0346 87.5173 33.2473 87.5173 34.4746V34.8207C87.5173 36.3972 88.0181 37.933 88.9474 39.2065C89.9209 40.5406 91.3106 41.5128 92.8976 41.9701L93.5654 42.1625C95.4161 42.6958 97.3872 42.6368 99.2027 41.9938L99.5135 41.8837C100.674 41.4726 101.722 40.7942 102.572 39.9033L102.78 39.6848C104.73 37.6416 105.34 34.6638 104.35 32.0188C103.817 30.5919 102.854 29.3656 101.595 28.5086L97.6699 25.8382C97.1609 25.4919 96.6791 25.1071 96.2288 24.6874L94.0303 22.6382C92.981 21.6601 92.3851 20.2901 92.3851 18.8557V18.2981C92.3851 17.6764 92.5628 17.0677 92.8973 16.5436C93.4963 15.6051 94.5328 15.0371 95.6462 15.0371H96.5531C97.0943 15.0371 97.6318 15.1264 98.1438 15.3016L101.245 16.3622L102.532 12.5981L99.4311 11.5375C98.5046 11.2207 97.5322 11.059 96.5531 11.059H95.6462Z" fill="black"/>
<circle cx="34.8477" cy="29.5172" r="7.24008" fill="black"/>
<ellipse cx="32.6149" cy="24.7236" rx="2.09227" ry="0.556929" transform="rotate(-23.0809 32.6149 24.7236)" fill="white"/>
<circle cx="103.032" cy="10.1838" r="4.84227" fill="white" stroke="black" stroke-width="4"/>
</svg>
